<svg width="30" height="26" viewBox="0 0 30 26" fill="none" xmlns="http://www.w3.org/2000/svg"><path d="M7.693 16.823v8.143a.385.385 0 01-.57.336L.967 21.904a.385.385 0 01-.198-.337v-8.376m6.923 3.632L15 20.265m-7.307-3.442L.77 13.191M15 20.265l6.923-3.442M15 20.265V11.47m6.923 5.353v8.16c0 .288.307.474.563.34l6.539-3.421a.385.385 0 00.206-.34V4.587m-7.308 12.235l.193-8.794m7.115-3.44L22.107.86a.385.385 0 00-.365.004L15 4.588m14.231 0L22.116 8.03M15 11.47L7.885 8.03M15 11.47l7.116-3.44M.77 4.587L7.512.865A.385.385 0 017.876.86L15 4.588m-14.23 0L7.885 8.03M.77 4.59v8.602M15 4.588L7.885 8.03" stroke="#4E83FC" stroke-width="1.154"/></svg>